<svg width="331" height="348" fill="none" xmlns="http://www.w3.org/2000/svg"><path d="M38.8 302.629v2c-1.067 0-1.867-.667-2.4-2-3.733-9.6-5.333-19.867-4.8-30.8.533-10.934 2.4-22.134 5.6-33.6 3.2-11.467 7.467-22.934 12.8-34.4a456.21 456.21 0 0118-34c-7.2-4.8-13.2-10.8-18-18-4.533-7.467-8.533-15.334-12-23.6a252.243 252.243 0 01-10.8-30c-2.933-10.134-5.733-20-8.4-29.6-2.667-9.6-5.467-18.667-8.4-27.2-2.933-8.8-6.4-16.667-10.4-23.6 0-1.067.133-1.467.4-1.2 8.267 5.866 14.667 13.066 19.2 21.6 4.8 8.533 8.667 17.733 11.6 27.6 3.2 9.866 6.133 20.133 8.8 30.8 2.667 10.4 6.133 20.4 10.4 30 2.933 6.666 6.133 12.933 9.6 18.8 3.733 5.6 8.267 10.933 13.6 16l5.2-8.4c-1.867-2.4-3.333-4.534-4.4-6.4-.8-2.134-.8-3.467 0-4 .533 0 1.467.533 2.8 1.6 1.333.8 2.8 2.133 4.4 4 2.667-2.934 4.667-5.867 6-8.8-4.8-8.8-9.067-18-12.8-27.6-3.467-9.6-6.8-19.467-10-29.6a539.47 539.47 0 00-8.4-24.8c-2.933-8-7.067-16.667-12.4-26a2.616 2.616 0 00-1.2-1.2c-.267-.534-.267-.934 0-1.2.533-.534 1.467-.4 2.8.4 5.6 2.4 10.533 6.933 14.8 13.6 4.533 6.4 8.533 13.466 12 21.2 3.467 7.733 6.4 15.466 8.8 23.2 2.667 7.466 4.8 13.466 6.4 18l8.4 22a3836.57 3836.57 0 0042.8-64c13.867-20.8 24.267-41.2 31.2-61.2l.8-2c.533-.534.8-.134.8 1.2.267 1.066.4 1.733.4 2-1.333 15.2-5.333 30.133-12 44.8-6.667 14.666-14.667 29.333-24 44-9.067 14.4-18.933 28.933-29.6 43.6-10.667 14.666-20.533 29.466-29.6 44.4-5.867 9.6-11.333 19.733-16.4 30.4a305.638 305.638 0 00-13.2 32.4c-3.467 10.666-6 21.2-7.6 31.6-1.6 10.133-1.867 19.466-.8 28zm79.2-104.8c-4 6.4-8.267 13.066-12.8 20-4.533 6.666-9.2 13.2-14 19.6-4.533 6.4-8.933 12.533-13.2 18.4-4.267 5.866-8.133 11.2-11.6 16-1.333 1.866-2.533 3.333-3.6 4.4-1.067.8-1.733 1.066-2 .8-.533 0-.533-.8 0-2.4a79.965 79.965 0 011.6-4.4c8.533-21.867 19.2-42.934 32-63.2a5926.88 5926.88 0 0140-61.2c8.267-12.8 16.667-25.6 25.2-38.4 8.533-13.067 16-28 22.4-44.8.533-1.334.667-2.134.4-2.4 0-.267.267-.4.8-.4.533.266.8.8.8 1.6v2.4c0 5.866-1.2 12.533-3.6 20-2.4 7.466-5.6 15.466-9.6 24-4 8.266-8.4 16.8-13.2 25.6-4.8 8.533-9.733 16.8-14.8 24.8-4.8 8-9.467 15.466-14 22.4-4.267 6.666-7.867 12.4-10.8 17.2zm38-95.6c-9.333 14.4-19.6 29.333-30.8 44.8-11.2 15.466-22.267 29.733-33.2 42.8-.533.533-1.733 1.866-3.6 4-1.867 1.866-3.2 2.533-4 2-.533-.534-.4-1.867.4-4 1.067-2.4 1.867-4 2.4-4.8 1.867-3.734 4.133-8 6.8-12.8a429.985 429.985 0 018.4-15.2c2.933-5.067 5.867-10 8.8-14.8 3.2-4.8 6-8.934 8.4-12.4 1.067-1.6 3.2-4.934 6.4-10 3.2-5.334 6.8-11.467 10.8-18.4 4-7.2 8.267-14.934 12.8-23.2 4.533-8.267 8.667-16.267 12.4-24 3.733-8 6.933-15.334 9.6-22 2.667-6.934 4.133-12.4 4.4-16.4.533-2.667.933-4 1.2-4 .533 0 .933.666 1.2 2 .267 1.066.533 1.866.8 2.4 1.067 5.6 1.067 12.133 0 19.6-1.067 7.466-2.8 15.2-5.2 23.2-2.133 7.733-4.933 15.333-8.4 22.8-3.2 7.2-6.4 13.333-9.6 18.4zm-105.2-45.6c2.933 9.866 5.733 20.4 8.4 31.6 2.933 10.933 5.333 21.6 7.2 32 .267.533.267 1.466 0 2.8 0 1.066-.267 1.866-.8 2.4-.533.266-1.333-.134-2.4-1.2-1.067-1.067-1.733-1.867-2-2.4-1.333-1.867-2.8-4.267-4.4-7.2a97.61 97.61 0 01-4.4-9.2l-4-9.6-2.8-8.4c-.8-2.667-2.533-7.2-5.2-13.6-2.4-6.667-5.333-13.6-8.8-20.8-3.2-7.2-6.667-14-10.4-20.4-3.467-6.4-6.667-10.8-9.6-13.2-1.6-1.6-2.133-2.4-1.6-2.4.267-.267.8-.267 1.6 0 .8.266 1.467.533 2 .8 4.267 1.333 8.4 3.466 12.4 6.4 4.267 2.933 8 6.266 11.2 10 3.467 3.733 6.267 7.6 8.4 11.6 2.4 3.733 4.133 7.333 5.2 10.8zm2.4 225.2c-1.067 5.066-1.867 9.6-2.4 13.6-.267 3.733-.4 7.066-.4 10v2c0 .8-.4 1.2-1.2 1.2-.533 0-1.2-.4-2-1.2-.533-.534-.933-1.2-1.2-2l-1.6-4c-.533-1.334-.933-2.8-1.2-4.4-.267-1.867-.267-4.134 0-6.8.267-2.934.8-6.534 1.6-10.8.8-3.467 2-7.734 3.6-12.8 1.6-5.067 3.333-9.867 5.2-14.4 1.867-4.8 3.6-8.667 5.2-11.6 1.867-2.934 3.333-4.134 4.4-3.6.267.266.267 1.2 0 2.8 0 1.6-.267 3.466-.8 5.6l-1.6 5.6c-.533 1.866-.933 3.2-1.2 4a255.776 255.776 0 00-3.6 13.6c-.8 4.266-1.733 8.666-2.8 13.2zM234 144.629c-3.733 14.4-8.4 29.333-14 44.8-5.333 15.466-10.933 30.133-16.8 44l-2 4c-1.067 1.866-1.867 2.666-2.4 2.4-.8 0-1.2-1.067-1.2-3.2.267-2.4.533-4 .8-4.8.267-3.2.8-7.2 1.6-12 1.067-4.8 2-9.734 2.8-14.8 1.067-5.067 2.133-10 3.2-14.8 1.333-4.8 2.533-8.934 3.6-12.4.8-2.4 2.267-8.4 4.4-18 2.133-9.6 4.133-20.267 6-32 2.133-11.734 3.733-23.067 4.8-34 1.067-10.934 1.067-18.934 0-24-.533-2.4-.533-3.6 0-3.6s.933.4 1.2 1.2l1.6 1.6c2.933 4.533 5.2 10 6.8 16.4 1.6 6.4 2.533 13.2 2.8 20.4.533 6.933.4 13.866-.4 20.8-.533 6.933-1.467 12.933-2.8 18zm-18-85.6c3.733 12.8 4.933 26.133 3.6 40-1.333 13.6-4 27.6-8 42-3.733 14.4-8 29.066-12.8 44-4.8 14.933-8.933 29.733-12.4 44.4-3.2 13.866-5.467 27.6-6.8 41.2-1.067 13.6-.133 27.466 2.8 41.6.8-1.334 1.6-2.267 2.4-2.8a21.07 21.07 0 003.2-2v-9.6c0-3.467.133-6.534.4-9.2.267-2.667.667-4.8 1.2-6.4.533-1.6 1.333-2.4 2.4-2.4.267 0 .533.666.8 2 .533 1.333.933 2.933 1.2 4.8.267 1.6.533 3.333.8 5.2.267 1.6.4 2.666.4 3.2.267 2.133.4 3.733.4 4.8 0 1.066.267 2.266.8 3.6.533-.267 1.333-.534 2.4-.8a22.69 22.69 0 014-1.2c1.333-19.2 4.4-38.267 9.2-57.2 4.8-19.2 10.133-38.534 16-58a807.339 807.339 0 0010.4-38.4c3.467-13.334 5.467-27.6 6-42.8 0-1.334.4-2 1.2-2 .267 0 .4.266.4.8 0 .533.267 1.066.8 1.6 2.933 7.2 4 16.666 3.2 28.4-.8 11.466-2.4 23.466-4.8 36a506.302 506.302 0 01-8.4 36c-3.2 11.466-5.6 20.666-7.2 27.6-2.933 11.2-6.267 22.666-10 34.4a2300.437 2300.437 0 01-10.8 32.4c5.067-.8 10.4-1.334 16-1.6 5.867-.267 11.2-.267 16 0 4.8 0 8.933.133 12.4.4h7.2c7.733.266 15.733 1.2 24 2.8 8.267 1.6 15.467 2.933 21.6 4 2.133.533 3.2 1.066 3.2 1.6 0 .533-.4.933-1.2 1.2-.8.266-1.467.533-2 .8-11.733 3.733-23.6 5.333-35.6 4.8-11.733-.8-24-1.867-36.8-3.2-4.8-.534-9.867-.934-15.2-1.2a96.396 96.396 0 00-15.2.4c-5.067.266-10 1.2-14.8 2.8-4.533 1.333-8.667 3.6-12.4 6.8-5.867-15.2-8.4-31.2-7.6-48 .8-16.8 3.2-33.6 7.2-50.4a620.661 620.661 0 0112-43.6c4.533-14.667 8.667-28.8 12.4-42.4 4-13.867 7.2-27.2 9.6-40 2.667-12.8 3.867-25.067 3.6-36.8.533-1.6.933-2.4 1.2-2.4.267-.267.533.133.8 1.2.267.8.533 1.333.8 1.6zm111.6 238.8c.533-.8.933-.667 1.2.4.533.8.533 1.866 0 3.2-1.6 4-3.2 7.466-4.8 10.4-1.333 2.933-4.133 5.866-8.4 8.8-1.867 1.333-4.133 2.533-6.8 3.6-2.667 1.066-5.2 1.866-7.6 2.4-2.4.533-4.533.8-6.4.8s-2.8-.534-2.8-1.6c-.267-.8.8-1.867 3.2-3.2l5.6-2.8a76.976 76.976 0 016.4-3.6 91.751 91.751 0 006.4-4.4c2.133-2.134 4.4-4.267 6.8-6.4 2.667-2.134 5.067-4.667 7.2-7.6zm2 12c.8-1.334 1.2-1.467 1.2-.4 0 1.066-.133 1.866-.4 2.4-4 9.066-8.667 16-14 20.8-5.067 4.8-10.667 8.4-16.8 10.8-5.867 2.133-12.133 3.466-18.8 4-6.4.266-12.8.4-19.2.4-17.867-.267-35.333-.934-52.4-2-16.8-1.334-32-.667-45.6 2H162c-.533.266-.267 0 .8-.8 6.4-6.4 13.6-10.267 21.6-11.6 8-1.334 16.4-1.467 25.2-.4 9.067.8 18.267 2.133 27.6 4 9.333 1.866 18.4 2.933 27.2 3.2 11.2.266 22.667-2 34.4-6.8 12-5.067 22.267-13.6 30.8-25.6zm-61.2 18.4c0 .533-.533.933-1.6 1.2-1.067.266-1.867.4-2.4.4-4 .8-9.467 1.333-16.4 1.6-6.667.266-12.8.133-18.4-.4-1.333 0-4.4-.134-9.2-.4-4.8-.534-10.4-.667-16.8-.4-6.133 0-12.4.666-18.8 2-6.4 1.333-11.867 3.6-16.4 6.8-1.067 1.066-1.867 1.2-2.4.4 0-.267.133-.8.4-1.6.533-1.067.933-1.734 1.2-2 3.733-5.867 9.467-10.267 17.2-13.2 8-3.2 16-5.2 24-6 8.533-.8 17.733-.267 27.6 1.6 9.867 1.6 19.2 3.733 28 6.4.267 0 .933.4 2 1.2 1.333.8 2 1.6 2 2.4z" fill="#F37744"/></svg>