<svg width="331" height="348" viewBox="0 0 331 348" fill="none" xmlns="http://www.w3.org/2000/svg">
<path d="M38.8 302.629C38.8 303.962 38.8 304.629 38.8 304.629C37.7333 304.629 36.9333 303.962 36.4 302.629C32.6667 293.029 31.0667 282.762 31.6 271.829C32.1333 260.895 34 249.695 37.2 238.229C40.4 226.762 44.6667 215.295 50 203.829C55.6 192.095 61.6 180.762 68 169.829C60.8 165.029 54.8 159.029 50 151.829C45.4667 144.362 41.4667 136.495 38 128.229C33.7333 118.362 30.1333 108.362 27.2 98.2286C24.2667 88.0952 21.4667 78.2286 18.8 68.6286C16.1333 59.0286 13.3333 49.9619 10.4 41.4286C7.46667 32.6286 4 24.7619 0 17.8286C0 16.7619 0.133333 16.3619 0.4 16.6286C8.66667 22.4952 15.0667 29.6952 19.6 38.2286C24.4 46.7619 28.2667 55.9619 31.2 65.8286C34.4 75.6952 37.3333 85.9619 40 96.6286C42.6667 107.029 46.1333 117.029 50.4 126.629C53.3333 133.295 56.5333 139.562 60 145.429C63.7333 151.029 68.2667 156.362 73.6 161.429L78.8 153.029C76.9333 150.629 75.4667 148.495 74.4 146.629C73.6 144.495 73.6 143.162 74.4 142.629C74.9333 142.629 75.8667 143.162 77.2 144.229C78.5333 145.029 80 146.362 81.6 148.229C84.2667 145.295 86.2667 142.362 87.6 139.429C82.8 130.629 78.5333 121.429 74.8 111.829C71.3333 102.229 68 92.3619 64.8 82.2286C62.1333 73.6952 59.3333 65.4286 56.4 57.4286C53.4667 49.4286 49.3333 40.7619 44 31.4286C43.7333 30.8952 43.3333 30.4952 42.8 30.2286C42.5333 29.6952 42.5333 29.2952 42.8 29.0286C43.3333 28.4952 44.2667 28.6286 45.6 29.4286C51.2 31.8286 56.1333 36.3619 60.4 43.0286C64.9333 49.4286 68.9333 56.4952 72.4 64.2286C75.8667 71.9619 78.8 79.6952 81.2 87.4286C83.8667 94.8952 86 100.895 87.6 105.429L96 127.429C110.933 105.562 125.2 84.2286 138.8 63.4286C152.667 42.6286 163.067 22.2286 170 2.22856C170.533 0.895233 170.8 0.228567 170.8 0.228567C171.333 -0.30476 171.6 0.0952429 171.6 1.42857C171.867 2.49524 172 3.16191 172 3.42857C170.667 18.6286 166.667 33.5619 160 48.2286C153.333 62.8952 145.333 77.5619 136 92.2286C126.933 106.629 117.067 121.162 106.4 135.829C95.7333 150.495 85.8667 165.295 76.8 180.229C70.9333 189.829 65.4667 199.962 60.4 210.629C55.3333 221.295 50.9333 232.095 47.2 243.029C43.7333 253.695 41.2 264.229 39.6 274.629C38 284.762 37.7333 294.095 38.8 302.629ZM118 197.829C114 204.229 109.733 210.895 105.2 217.829C100.667 224.495 96 231.029 91.2 237.429C86.6667 243.829 82.2667 249.962 78 255.829C73.7333 261.695 69.8667 267.029 66.4 271.829C65.0667 273.695 63.8667 275.162 62.8 276.229C61.7333 277.029 61.0667 277.295 60.8 277.029C60.2667 277.029 60.2667 276.229 60.8 274.629C61.3333 273.029 61.8667 271.562 62.4 270.229C70.9333 248.362 81.6 227.295 94.4 207.029C107.467 186.762 120.8 166.362 134.4 145.829C142.667 133.029 151.067 120.229 159.6 107.429C168.133 94.3619 175.6 79.4286 182 62.6286C182.533 61.2952 182.667 60.4952 182.4 60.2286C182.4 59.9619 182.667 59.8286 183.2 59.8286C183.733 60.0952 184 60.6286 184 61.4286C184 62.2286 184 63.0286 184 63.8286C184 69.6952 182.8 76.3619 180.4 83.8286C178 91.2952 174.8 99.2952 170.8 107.829C166.8 116.095 162.4 124.629 157.6 133.429C152.8 141.962 147.867 150.229 142.8 158.229C138 166.229 133.333 173.695 128.8 180.629C124.533 187.295 120.933 193.029 118 197.829ZM156 102.229C146.667 116.629 136.4 131.562 125.2 147.029C114 162.495 102.933 176.762 92 189.829C91.4667 190.362 90.2667 191.695 88.4 193.829C86.5333 195.695 85.2 196.362 84.4 195.829C83.8667 195.295 84 193.962 84.8 191.829C85.8667 189.429 86.6667 187.829 87.2 187.029C89.0667 183.295 91.3333 179.029 94 174.229C96.6667 169.162 99.4667 164.095 102.4 159.029C105.333 153.962 108.267 149.029 111.2 144.229C114.4 139.429 117.2 135.295 119.6 131.829C120.667 130.229 122.8 126.895 126 121.829C129.2 116.495 132.8 110.362 136.8 103.429C140.8 96.2286 145.067 88.4952 149.6 80.2286C154.133 71.9619 158.267 63.9619 162 56.2286C165.733 48.2286 168.933 40.8952 171.6 34.2286C174.267 27.2952 175.733 21.8286 176 17.8286C176.533 15.1619 176.933 13.8286 177.2 13.8286C177.733 13.8286 178.133 14.4952 178.4 15.8286C178.667 16.8952 178.933 17.6952 179.2 18.2286C180.267 23.8286 180.267 30.3619 179.2 37.8286C178.133 45.2952 176.4 53.0286 174 61.0286C171.867 68.7619 169.067 76.3619 165.6 83.8286C162.4 91.0286 159.2 97.1619 156 102.229ZM50.8 56.6286C53.7333 66.4952 56.5333 77.0286 59.2 88.2286C62.1333 99.1619 64.5333 109.829 66.4 120.229C66.6667 120.762 66.6667 121.695 66.4 123.029C66.4 124.095 66.1333 124.895 65.6 125.429C65.0667 125.695 64.2667 125.295 63.2 124.229C62.1333 123.162 61.4667 122.362 61.2 121.829C59.8667 119.962 58.4 117.562 56.8 114.629C55.2 111.695 53.7333 108.629 52.4 105.429C51.0667 102.229 49.7333 99.0286 48.4 95.8286C47.3333 92.6286 46.4 89.8286 45.6 87.4286C44.8 84.7619 43.0667 80.2286 40.4 73.8286C38 67.1619 35.0667 60.2286 31.6 53.0286C28.4 45.8286 24.9333 39.0286 21.2 32.6286C17.7333 26.2286 14.5333 21.8286 11.6 19.4286C10 17.8286 9.46667 17.0286 10 17.0286C10.2667 16.7619 10.8 16.7619 11.6 17.0286C12.4 17.2952 13.0667 17.5619 13.6 17.8286C17.8667 19.1619 22 21.2952 26 24.2286C30.2667 27.1619 34 30.4952 37.2 34.2286C40.6667 37.9619 43.4667 41.8286 45.6 45.8286C48 49.5619 49.7333 53.1619 50.8 56.6286ZM53.2 281.829C52.1333 286.895 51.3333 291.429 50.8 295.429C50.5333 299.162 50.4 302.495 50.4 305.429C50.4 305.962 50.4 306.629 50.4 307.429C50.4 308.229 50 308.629 49.2 308.629C48.6667 308.629 48 308.229 47.2 307.429C46.6667 306.895 46.2667 306.229 46 305.429C45.4667 304.095 44.9333 302.762 44.4 301.429C43.8667 300.095 43.4667 298.629 43.2 297.029C42.9333 295.162 42.9333 292.895 43.2 290.229C43.4667 287.295 44 283.695 44.8 279.429C45.6 275.962 46.8 271.695 48.4 266.629C50 261.562 51.7333 256.762 53.6 252.229C55.4667 247.429 57.2 243.562 58.8 240.629C60.6667 237.695 62.1333 236.495 63.2 237.029C63.4667 237.295 63.4667 238.229 63.2 239.829C63.2 241.429 62.9333 243.295 62.4 245.429C61.8667 247.295 61.3333 249.162 60.8 251.029C60.2667 252.895 59.8667 254.229 59.6 255.029C58.2667 259.562 57.0667 264.095 56 268.629C55.2 272.895 54.2667 277.295 53.2 281.829Z" fill="#F37744"/>
<path d="M234 144.629C230.267 159.029 225.6 173.962 220 189.429C214.667 204.895 209.067 219.562 203.2 233.429C202.933 233.962 202.267 235.295 201.2 237.429C200.133 239.295 199.333 240.095 198.8 239.829C198 239.829 197.6 238.762 197.6 236.629C197.867 234.229 198.133 232.629 198.4 231.829C198.667 228.629 199.2 224.629 200 219.829C201.067 215.029 202 210.095 202.8 205.029C203.867 199.962 204.933 195.029 206 190.229C207.333 185.429 208.533 181.295 209.6 177.829C210.4 175.429 211.867 169.429 214 159.829C216.133 150.229 218.133 139.562 220 127.829C222.133 116.095 223.733 104.762 224.8 93.8286C225.867 82.8952 225.867 74.8952 224.8 69.8285C224.267 67.4285 224.267 66.2286 224.8 66.2286C225.333 66.2286 225.733 66.6286 226 67.4286C226.533 67.9619 227.067 68.4952 227.6 69.0286C230.533 73.5619 232.8 79.0286 234.4 85.4286C236 91.8286 236.933 98.6286 237.2 105.829C237.733 112.762 237.6 119.695 236.8 126.629C236.267 133.562 235.333 139.562 234 144.629ZM216 59.0285C219.733 71.8286 220.933 85.1619 219.6 99.0286C218.267 112.629 215.6 126.629 211.6 141.029C207.867 155.429 203.6 170.095 198.8 185.029C194 199.962 189.867 214.762 186.4 229.429C183.2 243.295 180.933 257.029 179.6 270.629C178.533 284.229 179.467 298.095 182.4 312.229C183.2 310.895 184 309.962 184.8 309.429C185.867 308.895 186.933 308.229 188 307.429C188 304.229 188 301.029 188 297.829C188 294.362 188.133 291.295 188.4 288.629C188.667 285.962 189.067 283.829 189.6 282.229C190.133 280.629 190.933 279.829 192 279.829C192.267 279.829 192.533 280.495 192.8 281.829C193.333 283.162 193.733 284.762 194 286.629C194.267 288.229 194.533 289.962 194.8 291.829C195.067 293.429 195.2 294.495 195.2 295.029C195.467 297.162 195.6 298.762 195.6 299.829C195.6 300.895 195.867 302.095 196.4 303.429C196.933 303.162 197.733 302.895 198.8 302.629C200.133 302.095 201.467 301.695 202.8 301.429C204.133 282.229 207.2 263.162 212 244.229C216.8 225.029 222.133 205.695 228 186.229C231.733 173.695 235.2 160.895 238.4 147.829C241.867 134.495 243.867 120.229 244.4 105.029C244.4 103.695 244.8 103.029 245.6 103.029C245.867 103.029 246 103.295 246 103.829C246 104.362 246.267 104.895 246.8 105.429C249.733 112.629 250.8 122.095 250 133.829C249.2 145.295 247.6 157.295 245.2 169.829C242.8 182.095 240 194.095 236.8 205.829C233.6 217.295 231.2 226.495 229.6 233.429C226.667 244.629 223.333 256.095 219.6 267.829C215.867 279.295 212.267 290.095 208.8 300.229C213.867 299.429 219.2 298.895 224.8 298.629C230.667 298.362 236 298.362 240.8 298.629C245.6 298.629 249.733 298.762 253.2 299.029C256.933 299.029 259.333 299.029 260.4 299.029C268.133 299.295 276.133 300.229 284.4 301.829C292.667 303.429 299.867 304.762 306 305.829C308.133 306.362 309.2 306.895 309.2 307.429C309.2 307.962 308.8 308.362 308 308.629C307.2 308.895 306.533 309.162 306 309.429C294.267 313.162 282.4 314.762 270.4 314.229C258.667 313.429 246.4 312.362 233.6 311.029C228.8 310.495 223.733 310.095 218.4 309.829C213.333 309.562 208.267 309.695 203.2 310.229C198.133 310.495 193.2 311.429 188.4 313.029C183.867 314.362 179.733 316.629 176 319.829C170.133 304.629 167.6 288.629 168.4 271.829C169.2 255.029 171.6 238.229 175.6 221.429C179.067 206.762 183.067 192.229 187.6 177.829C192.133 163.162 196.267 149.029 200 135.429C204 121.562 207.2 108.229 209.6 95.4286C212.267 82.6286 213.467 70.3619 213.2 58.6286C213.733 57.0286 214.133 56.2286 214.4 56.2286C214.667 55.9619 214.933 56.3619 215.2 57.4286C215.467 58.2286 215.733 58.7619 216 59.0285ZM327.6 297.829C328.133 297.029 328.533 297.162 328.8 298.229C329.333 299.029 329.333 300.095 328.8 301.429C327.2 305.429 325.6 308.895 324 311.829C322.667 314.762 319.867 317.695 315.6 320.629C313.733 321.962 311.467 323.162 308.8 324.229C306.133 325.295 303.6 326.095 301.2 326.629C298.8 327.162 296.667 327.429 294.8 327.429C292.933 327.429 292 326.895 292 325.829C291.733 325.029 292.8 323.962 295.2 322.629C297.867 321.295 299.733 320.362 300.8 319.829C302.933 318.495 305.067 317.295 307.2 316.229C309.333 314.895 311.467 313.429 313.6 311.829C315.733 309.695 318 307.562 320.4 305.429C323.067 303.295 325.467 300.762 327.6 297.829ZM329.6 309.829C330.4 308.495 330.8 308.362 330.8 309.429C330.8 310.495 330.667 311.295 330.4 311.829C326.4 320.895 321.733 327.829 316.4 332.629C311.333 337.429 305.733 341.029 299.6 343.429C293.733 345.562 287.467 346.895 280.8 347.429C274.4 347.695 268 347.829 261.6 347.829C243.733 347.562 226.267 346.895 209.2 345.829C192.4 344.495 177.2 345.162 163.6 347.829C163.067 347.829 162.533 347.829 162 347.829C161.467 348.095 161.733 347.829 162.8 347.029C169.2 340.629 176.4 336.762 184.4 335.429C192.4 334.095 200.8 333.962 209.6 335.029C218.667 335.829 227.867 337.162 237.2 339.029C246.533 340.895 255.6 341.962 264.4 342.229C275.6 342.495 287.067 340.229 298.8 335.429C310.8 330.362 321.067 321.829 329.6 309.829ZM268.4 328.229C268.4 328.762 267.867 329.162 266.8 329.429C265.733 329.695 264.933 329.829 264.4 329.829C260.4 330.629 254.933 331.162 248 331.429C241.333 331.695 235.2 331.562 229.6 331.029C228.267 331.029 225.2 330.895 220.4 330.629C215.6 330.095 210 329.962 203.6 330.229C197.467 330.229 191.2 330.895 184.8 332.229C178.4 333.562 172.933 335.829 168.4 339.029C167.333 340.095 166.533 340.229 166 339.429C166 339.162 166.133 338.629 166.4 337.829C166.933 336.762 167.333 336.095 167.6 335.829C171.333 329.962 177.067 325.562 184.8 322.629C192.8 319.429 200.8 317.429 208.8 316.629C217.333 315.829 226.533 316.362 236.4 318.229C246.267 319.829 255.6 321.962 264.4 324.629C264.667 324.629 265.333 325.029 266.4 325.829C267.733 326.629 268.4 327.429 268.4 328.229Z" fill="#F37744"/>
</svg>
